<?xml version="1.0" encoding="UTF-8"?>
<svg version="1.1" xmlns="http://www.w3.org/2000/svg" width="512" height="512">
<path d="M0 0 C1.09991272 0.00182281 2.19982544 0.00364563 3.33306885 0.00552368 C61.44879953 0.16650473 132.24252351 7.45950731 179.0625 45.3125 C180.10664062 46.08787109 180.10664062 46.08787109 181.171875 46.87890625 C189.7396688 53.53221515 196.30528429 63.58687942 198.0625 74.3125 C198.15310201 76.40167159 198.19155474 78.49339501 198.19392776 80.58452892 C198.19776891 81.85627317 198.20161005 83.12801741 198.2055676 84.43829936 C198.2047874 85.84730929 198.20390862 87.25631917 198.20294189 88.66532898 C198.20552625 90.16394544 198.2085396 91.66256121 198.2119453 93.16117603 C198.22001031 97.28074947 198.22180459 101.40030549 198.22254276 105.5198859 C198.22439418 109.96243499 198.23194197 114.40497505 198.23867798 118.84751892 C198.25225829 128.56245924 198.25828555 138.27739543 198.26268864 147.99234366 C198.26545157 154.05881383 198.26968902 160.12528239 198.27419281 166.19175148 C198.28638508 182.98921833 198.29668448 199.7866839 198.3000679 216.58415508 C198.30028747 217.65917435 198.30050703 218.73419362 198.30073325 219.84178923 C198.30095153 220.91937521 198.30116981 221.99696118 198.3013947 223.10720128 C198.30183817 225.29078718 198.30228473 227.47437308 198.30273438 229.65795898 C198.3029558 230.74109215 198.30317723 231.82422531 198.30340537 232.9401807 C198.30735316 250.48974569 198.32480679 268.03926915 198.3480939 285.5888181 C198.37181138 303.60820407 198.38426993 321.62756921 198.38543582 339.64697105 C198.38635236 349.76357365 198.39209931 359.88012213 198.41025543 369.99670982 C198.42566175 378.61144518 198.43077373 387.2261097 198.42251733 395.84085622 C198.41861272 400.2349864 198.41953119 404.62897395 198.43357468 409.02308655 C198.44632483 413.04939708 198.44510636 417.07545799 198.43298396 421.10176823 C198.4310289 422.55468315 198.43409661 424.00761581 198.44282833 425.46050581 C198.5245341 439.98047719 195.64460056 451.566934 185.5 462.375 C144.24031942 501.07533949 72.80863902 510.30847189 18.7578125 510.515625 C17.52780014 510.52263931 16.29778778 510.52965363 15.03050232 510.53688049 C11.08281792 510.55428858 7.13521461 510.56131432 3.1875 510.5625 C2.51519726 510.56294186 1.84289452 510.56338371 1.15021896 510.56383896 C-19.03377294 510.57079762 -38.94067522 510.33188038 -58.9375 507.3125 C-60.14664063 507.13557617 -61.35578125 506.95865234 -62.6015625 506.77636719 C-104.34692416 500.52104514 -158.40852754 489.67305597 -187.25390625 455.57421875 C-193.63232103 446.79890489 -196.05903494 438.78216465 -196.06613445 427.87246227 C-196.0693589 426.61415291 -196.07258335 425.35584355 -196.0759055 424.0594036 C-196.07443459 422.6759294 -196.07286689 421.29245531 -196.07121277 419.90898132 C-196.07308214 418.42926294 -196.07538335 416.94954506 -196.07807809 415.46982795 C-196.0841868 411.41177888 -196.08406359 407.35375043 -196.08288372 403.29569781 C-196.08267948 398.915899 -196.08820068 394.53610677 -196.09294128 390.15631104 C-196.10124321 381.57862957 -196.10399591 373.00095498 -196.10455366 364.42326983 C-196.10502902 357.45031358 -196.10708477 350.4773596 -196.11025429 343.50440407 C-196.11905947 323.73024389 -196.12367386 303.95608914 -196.12292381 284.18192699 C-196.12286388 282.58330746 -196.12286388 282.58330746 -196.12280273 280.95239258 C-196.12276185 279.88534349 -196.12272097 278.8182944 -196.12267885 277.71891049 C-196.12227238 260.42491028 -196.1318426 243.13093184 -196.1459411 225.83693793 C-196.16030661 208.07513157 -196.16721119 190.31333582 -196.16634732 172.55152351 C-196.16601542 162.58139966 -196.16875949 152.61129865 -196.17952538 142.64118004 C-196.18863264 134.15276534 -196.19080374 125.66438382 -196.18401595 117.17596634 C-196.18075196 112.84666096 -196.18068976 108.51741921 -196.1893692 104.18811989 C-196.19724034 100.22114706 -196.1957965 96.25428828 -196.18708507 92.28731821 C-196.18555144 90.85599913 -196.18736105 89.42467152 -196.19294515 87.99336251 C-196.25177726 71.83721704 -193.90142975 60.83185558 -182.62109375 48.84765625 C-151.97570975 19.89735899 -104.23174338 10.067944 -64 4.125 C-62.96713867 3.9700708 -61.93427734 3.8151416 -60.87011719 3.65551758 C-40.66600471 0.83265824 -20.38118606 -0.07098274 0 0 Z M-133.68359375 58.09375 C-137.12171724 62.37922971 -137.9375 65.97561201 -137.9375 71.3125 C-133.81323861 82.38288584 -124.07143217 87.41715581 -114 92.375 C-89.92687863 103.01130274 -62.93645763 106.86710581 -36.9375 109.3125 C-35.44609497 109.45715698 -35.44609497 109.45715698 -33.92456055 109.60473633 C-22.34242738 110.58571042 -10.74059999 110.51278156 0.875 110.5 C2.51829788 110.49859512 2.51829788 110.49859512 4.1947937 110.49716187 C19.90092277 110.46801395 35.4677374 110.36990216 51.0625 108.3125 C52.30161133 108.15120605 53.54072266 107.98991211 54.81738281 107.82373047 C100.80528042 102.23410577 100.80528042 102.23410577 138.0625 77.3125 C140.35207422 73.33063179 140.60197229 69.85948075 140.0625 65.3125 C135.69846967 54.28058578 124.71658375 48.63929569 114.42626953 44.18066406 C79.20441055 29.68979527 39.7680853 27.08226631 2.125 27.0625 C0.96943604 27.06182526 -0.18612793 27.06115051 -1.37670898 27.06045532 C-72.3839173 27.03030233 -72.3839173 27.03030233 -133.68359375 58.09375 Z M-103.18359375 210.2421875 C-114.38539732 223.46480641 -112.29718986 243.01129847 -112.46923828 259.16796875 C-112.50299227 262.04704097 -112.54805462 264.92578403 -112.59375 267.8046875 C-112.5990271 268.68494598 -112.6043042 269.56520447 -112.60974121 270.47213745 C-112.7432856 278.68541825 -112.7432856 278.68541825 -114.9375 282.3125 C-118.9375 284.3125 -118.9375 284.3125 -130.9375 285.3125 C-130.9375 297.1925 -130.9375 309.0725 -130.9375 321.3125 C-126.6475 321.9725 -122.3575 322.6325 -117.9375 323.3125 C-113.92162725 328.33234094 -112.82947425 330.17441064 -112.76391602 336.2043457 C-112.75042618 337.20001053 -112.73693634 338.19567535 -112.72303772 339.22151184 C-112.71259933 340.29954575 -112.70216095 341.37757965 -112.69140625 342.48828125 C-112.6584298 344.78450847 -112.62521888 347.08073234 -112.59179688 349.37695312 C-112.54468446 352.98605717 -112.50032778 356.59515155 -112.46069336 360.2043457 C-113.20578699 390.39549757 -113.20578699 390.39549757 -100.1953125 416.53515625 C-87.23635263 426.73641359 -71.98780874 428.80383598 -55.9375 428.3125 C-55.9375 419.7325 -55.9375 411.1525 -55.9375 402.3125 C-59.8975 401.3225 -63.8575 400.3325 -67.9375 399.3125 C-72.11838897 395.45952389 -73.75820707 392.46033361 -74.07553101 386.88909912 C-74.08202667 385.98693665 -74.08852234 385.08477417 -74.09521484 384.15527344 C-74.10547699 383.12609802 -74.11573914 382.09692261 -74.12631226 381.03656006 C-74.13361359 379.92621399 -74.14091492 378.81586792 -74.1484375 377.671875 C-74.17653931 375.2968685 -74.20520392 372.92186861 -74.234375 370.546875 C-74.27535477 366.82161889 -74.31225727 363.09648164 -74.33886719 359.37109375 C-73.43944927 333.51817294 -73.43944927 333.51817294 -82.9375 310.3125 C-86.89323479 306.61667673 -86.89323479 306.61667673 -91.9375 305.3125 C-90.7716511 301.81495331 -90.21204543 301.64425239 -87.125 299.9375 C-80.7942868 296.12776724 -77.84702383 291.34246671 -75.9375 284.3125 C-74.90967029 278.43416218 -74.74074116 272.66644749 -74.65625 266.70703125 C-74.63784058 265.70540451 -74.61943115 264.70377777 -74.60046387 263.67179871 C-74.52217967 259.40898759 -74.45395461 255.14603137 -74.38525391 250.88305664 C-74.33349025 247.76180334 -74.27628014 244.64068273 -74.21875 241.51953125 C-74.20517456 240.55594193 -74.19159912 239.5923526 -74.1776123 238.5995636 C-74.15253601 237.25247566 -74.15253601 237.25247566 -74.12695312 235.87817383 C-74.10816101 234.69739006 -74.10816101 234.69739006 -74.08898926 233.49275208 C-73.9375 231.3125 -73.9375 231.3125 -72.9375 227.3125 C-64.5225 226.8175 -64.5225 226.8175 -55.9375 226.3125 C-55.9375 216.7425 -55.9375 207.1725 -55.9375 197.3125 C-73.01254099 196.81995074 -90.03180797 197.96718744 -103.18359375 210.2421875 Z M61.0625 198.3125 C61.0625 208.2125 61.0625 218.1125 61.0625 228.3125 C65.6825 228.3125 70.3025 228.3125 75.0625 228.3125 C78.0625 230.3125 78.0625 230.3125 79.0625 233.3125 C79.18164937 236.3146584 79.24792062 239.29769093 79.2734375 242.30078125 C79.30154754 244.1412843 79.33021217 245.98177895 79.359375 247.82226562 C79.40029127 250.70710637 79.43719302 253.5917973 79.46386719 256.47680664 C79.1984808 279.32524748 79.1984808 279.32524748 89.54296875 298.8671875 C92.52700629 301.58273837 95.03911497 302.95749544 99.0625 303.3125 C97.89619353 306.8114194 96.72403727 307.20196304 93.74609375 309.1015625 C85.9361767 314.71890423 82.61111644 323.33042566 80.98046875 332.52734375 C79.17681533 344.81093529 79.67208386 357.39762378 79.60620117 369.78442383 C79.58456752 373.19897561 79.54517774 376.61298115 79.50390625 380.02734375 C79.50379044 381.07115707 79.50367462 382.1149704 79.5035553 383.19041443 C79.42822297 388.71742983 79.00982995 392.46902676 76.0625 397.3125 C76.0625 397.9725 76.0625 398.6325 76.0625 399.3125 C74.68958132 399.79759793 73.31403297 400.27525513 71.9375 400.75 C71.17179687 401.01683594 70.40609375 401.28367187 69.6171875 401.55859375 C67.0625 402.3125 67.0625 402.3125 61.0625 403.3125 C61.0625 412.2225 61.0625 421.1325 61.0625 430.3125 C77.02297125 430.3125 94.95771724 428.94770067 107.0625 417.3125 C116.70491008 406.28622552 118.17268084 391.70712364 118.30859375 377.66796875 C118.34153264 375.35872017 118.37474428 373.04947548 118.40820312 370.74023438 C118.45555394 367.1197373 118.50000808 363.49925589 118.53930664 359.87866211 C118.57921523 356.37076861 118.63071026 352.86318738 118.68359375 349.35546875 C118.6920079 348.28330612 118.70042206 347.21114349 118.70909119 346.10649109 C118.9649299 330.4100701 118.9649299 330.4100701 125.0625 324.3125 C131.0025 323.3225 131.0025 323.3225 137.0625 322.3125 C137.0625 310.1025 137.0625 297.8925 137.0625 285.3125 C132.7725 284.9825 128.4825 284.6525 124.0625 284.3125 C118.21025437 278.46025437 118.92603419 272.99894452 118.88671875 265.1796875 C118.86350763 263.3854051 118.83938979 261.59113425 118.81445312 259.796875 C118.77951159 256.99959706 118.75007356 254.20274202 118.73657227 251.40527344 C118.64649456 235.75669684 117.22482263 222.87328241 106.578125 210.6015625 C95.19178691 199.49706446 76.0317573 198.3125 61.0625 198.3125 Z " fill="#037AD6" transform="translate(254.9375,0.6875)"/>
<path d="M0 0 C0.66 0.33 1.32 0.66 2 1 C-3.28 6.28 -8.56 11.56 -14 17 C-14 12.95607032 -12.51908749 11.99868382 -9.8125 9.0625 C-9.03519531 8.20785156 -8.25789063 7.35320313 -7.45703125 6.47265625 C-5.09786332 4.09848566 -2.65532732 2.0327639 0 0 Z " fill="#5FABE6" transform="translate(80,43)"/>
<path d="M0 0 C0.8971875 0.309375 0.8971875 0.309375 1.8125 0.625 C0.69875 1.2746875 0.69875 1.2746875 -0.4375 1.9375 C-2.80583926 3.39079909 -4.99674065 4.92107606 -7.1875 6.625 C-4.6484375 -0.796875 -4.6484375 -0.796875 0 0 Z " fill="#62ACE7" transform="translate(382.1875,324.375)"/>
</svg>
